<svg xmlns="http://www.w3.org/2000/svg" fill="none" viewBox="0 0 192 33"><g fill="#fff" clip-path="url(#a)"><path d="M5.62 5.09 14.6 0l8.982 5.09-3.37 1.788-5.612-3.165-5.757 3.165L5.619 5.09Zm17.825 6.32-3.232-1.788-5.612 3.165-5.757-3.165-3.232 1.789v3.713l5.62 3.165v6.465l3.231 1.924 3.232-1.924v-6.322l5.62-3.165V11.42h.13v-.008Zm0 10.18v-3.714L20.213 19.8v3.57l3.232-1.78Zm2.388 1.232-5.612 3.165V29.7l8.99-5.09V14.44l-3.37 2.06-.008 6.322ZM22.6 8.254l3.232 1.924v3.714l3.232-1.925V8.254l-3.232-1.925L22.6 8.254ZM11.23 27.362v3.714L14.463 33l3.232-1.924v-3.714l-3.232 1.925-3.232-1.925Zm-5.62-5.773 3.233 1.79v-3.714L5.612 17.74v3.85Zm5.62-13.335 3.232 1.924 3.37-1.924-3.232-1.925-3.37 1.925Zm-8 1.924 3.371-1.924-3.37-1.925L0 8.254v3.713l3.232 1.925v-3.714Zm.001 6.322L0 14.576v10.17l8.99 5.09v-3.714l-5.62-3.165v-6.465l-.138.008ZM55.04 20.762c0-2.473-1.405-3.713-3.508-4.54 1.405-.684 2.525-1.925 2.525-3.984 0-2.887-2.387-4.811-6.18-4.811h-8.705V25.85h8.982c4.076-.143 6.886-1.789 6.886-5.089Zm-5.197-7.84c0 1.375-1.121 1.924-2.948 1.924h-3.793v-3.984h4.07c1.834 0 2.67.692 2.67 2.06Zm1.128 7.291c0 1.376-1.12 2.06-2.948 2.06H43.11v-3.984h4.775c2.104-.143 3.086.684 3.086 1.924ZM75.392 25.708V7.427h-4.076v11.276L62.472 7.427h-3.785V25.85h4.069V14.162l9.128 11.69h3.508v-.144ZM96.032 20.762c0-2.473-1.405-3.713-3.508-4.54 1.405-.684 2.525-1.925 2.525-3.984 0-2.887-2.387-4.811-6.18-4.811h-8.705V25.85h8.982c4.076-.143 6.886-1.789 6.886-5.089Zm-5.051-7.84c0 1.375-1.121 1.924-2.948 1.924H84.24v-3.984h4.07c1.688 0 2.67.692 2.67 2.06Zm.982 7.291c0 1.376-1.12 2.06-2.947 2.06h-4.914v-3.984h4.775c2.104-.143 3.086.684 3.086 1.924ZM120.877 22.55l-2.103-2.059c-1.543 1.511-3.087 2.338-5.336 2.338-3.654 0-6.18-2.887-6.18-6.6 0-3.578 2.672-6.457 6.18-6.457 2.104 0 3.793.962 5.197 2.338l2.104-2.473c-1.827-1.647-3.931-2.887-7.301-2.887-5.619 0-9.688 4.262-9.688 9.487 0 5.36 4.069 9.486 9.55 9.486 3.508-.015 5.612-1.248 7.577-3.172ZM136.894 17.74v7.698h3.231V7.014h-3.231v7.697h-8.982V7.014h-3.232v18.424h3.232v-7.697h8.982ZM154.994 7.014h-3.086l-8.283 18.56h3.37l1.965-4.398h8.844l1.965 4.397h3.508l-8.283-18.56Zm1.689 11.132h-6.456l3.232-7.284 3.224 7.284ZM166.93 7.014v18.424h3.224V7.014h-3.224ZM188.551 19.8 178.44 7.15h-2.948v18.424h3.232v-13.2l10.387 13.065h2.81V7.014h-3.232V19.8h-.138Z"/></g><defs><clipPath id="a"><path fill="#fff" d="M0 0h191.921v33H0z"/></clipPath></defs></svg>