<svg xmlns="http://www.w3.org/2000/svg" viewBox="0 0 181.82 181.91"><g data-name="Layer 2"><g data-name="Layer 1"><path d="M45.23 51.11A60.66 60.66 0 0 0 30.27 90a30.32 30.32 0 0 1-7.46 19.46 30.3 30.3 0 0 1-18.26 10A89.61 89.61 0 0 1 0 91a90.94 90.94 0 0 1 45.91-79 30.33 30.33 0 0 1-.68 39.14ZM120.08 177.1a90.88 90.88 0 0 1-107.81-40.5 30.36 30.36 0 0 1 39.13.4 60.63 60.63 0 0 0 38.87 14.6 30.36 30.36 0 0 1 29.81 25.5ZM181.82 91a90.94 90.94 0 0 1-44.63 78.27 30.35 30.35 0 0 1 0-39.18A60.4 60.4 0 0 0 151.5 91a30.38 30.38 0 0 1 25.14-29.91A89.4 89.4 0 0 1 181.82 91ZM170.27 46.61a30.3 30.3 0 0 1-39.09-1 60.6 60.6 0 0 0-38.82-15.23 30.27 30.27 0 0 1-19.46-7.6A30.23 30.23 0 0 1 63 4.38a90.92 90.92 0 0 1 107.27 42.23ZM90.86 125.33A34.36 34.36 0 1 0 56.5 91a34.36 34.36 0 0 0 34.36 34.33Z"/></g></g></svg>