<svg xmlns="http://www.w3.org/2000/svg" fill="none" viewBox="0 0 134 34"><path fill="#fff" d="m133.09 21.246-5.072-8.8a.89.89 0 0 0-1.52 0l-5.073 8.8a.793.793 0 0 0-.1.348c-.032.497.355.94.852.953.347.008.618-.167.827-.541l.785-1.364a.573.573 0 0 1 .498-.29h5.928c.206 0 .396.111.498.29l.784 1.364c.199.353.465.529.788.54a.882.882 0 0 0 .805-1.3Zm-4.23-2.647h-3.215a.392.392 0 0 1-.34-.588l1.613-2.784a.394.394 0 0 1 .681 0l1.602 2.784a.393.393 0 0 1-.34.588h-.001Zm-95.227-5.134A16.878 16.878 0 0 0 29.02 4.98 16.888 16.888 0 0 0 17 0C12.46 0 8.19 1.769 4.98 4.98A17.184 17.184 0 0 0 2.899 7.5c-.18.24-.341.492-.485.758A16.872 16.872 0 0 0 0 17c0 4.54 1.769 8.81 4.98 12.02C8.19 32.231 12.46 34 17 34c4.54 0 8.81-1.769 12.02-4.98a16.984 16.984 0 0 0 3.547-5.17 6.28 6.28 0 0 0 .27-.647A16.997 16.997 0 0 0 34 17c0-1.188-.122-2.356-.358-3.492l-.009-.044v.001Zm-5.897-7.773a15.55 15.55 0 0 1 3.724 5.454.263.263 0 0 1-.29.358 7.802 7.802 0 0 0-1.51-.107.786.786 0 0 1-.79-.646c-.302-1.7-.741-3.27-1.304-4.64-.032-.078-.064-.156-.098-.232-.071-.167.137-.312.268-.187Zm1.618 9.973a.181.181 0 0 1 .328-.11 14.521 14.521 0 0 1 .805 1.254.392.392 0 0 1-.05.459 16.728 16.728 0 0 1-.836.856.156.156 0 0 1-.264-.118 35.822 35.822 0 0 0 .015-2.344l.002.003ZM7.949 4.301a15.474 15.474 0 0 1 9.053-2.893c.868 0 1.726.072 2.567.21a.262.262 0 0 1 .12.464c-.815.64-1.571 1.584-2.241 2.809a.731.731 0 0 1-.838.353c-2.218-.625-4.402-.919-6.418-.847-.745.026-1.448.101-2.11.223-.187.034-.286-.21-.133-.32ZM5.723 27.592c-.327-.617.096-2.05 2.247-4.229a.537.537 0 0 0-.047-.798 28.898 28.898 0 0 1-.257-.205.537.537 0 0 0-.719.039l-.084.084c-1.076 1.104-1.828 2.126-2.25 3.045a.367.367 0 0 1-.64.05A15.482 15.482 0 0 1 1.408 17c0-1.107.114-2.195.337-3.254.034-.16.26-.17.308-.013.324 1.068.85 2.172 1.578 3.29.98 1.504 2.27 2.95 3.802 4.276a26.29 26.29 0 0 0 1.65 1.314 28.947 28.947 0 0 0 3.782 2.346c.598.31 1.18.608 1.777.877.332.15.71.16 1.049.027.281-.11.564-.225.848-.344a.68.68 0 0 0 .396-.792 3.747 3.747 0 0 1-.023-.093c-.47-1.976-.73-4.2-.761-6.53v-.083c0-.127 0-.255-.003-.382v-.199a33.7 33.7 0 0 1 .047-1.627c.145-2.811.621-5.453 1.38-7.675a.393.393 0 0 0-.244-.498c-.2-.069-.4-.135-.6-.197a.39.39 0 0 0-.487.246c-.822 2.412-1.328 5.276-1.464 8.306a1.142 1.142 0 0 1-.559.932c-1.795 1.064-3.443 2.19-4.866 3.326a.787.787 0 0 1-1.008-.02C6.92 18.994 5.718 17.65 4.81 16.256c-1.784-2.74-2.208-5.32-1.194-7.265.003-.005.004-.01.008-.014.13-.214.264-.427.403-.635 1.167-1.542 3.336-2.437 6.214-2.538.182-.006.365-.009.55-.009 1.766 0 3.66.292 5.587.847l.127.037c.032.009.065.018.098.029a24.913 24.913 0 0 1 1.37.454c.116.041.232.086.348.128l.108.042.106.04c.94.363 1.88.787 2.81 1.27a26.877 26.877 0 0 1 4.873 3.229c-2.732.625-5.908 1.833-9.1 3.462a.467.467 0 0 0-.254.388c-.01.197-.026.596-.037.911a.258.258 0 0 0 .38.237c3.161-1.66 6.317-2.902 9.026-3.556.506-.123.835-.609.763-1.126-.05-.36-.105-.715-.168-1.064a1.78 1.78 0 0 0-.671-1.099 28.87 28.87 0 0 0-4.165-2.631 29.242 29.242 0 0 0-3.058-1.375.384.384 0 0 1-.199-.547c1.057-1.89 2.314-2.95 3.538-2.95h.038c1.445.027 2.886 1.531 3.951 4.127.54 1.315.959 2.83 1.245 4.477l-.005-.005c.122.704.22 1.43.294 2.174a.082.082 0 0 1-.02.011l.026.026a34.563 34.563 0 0 1 .015 6.363c-1.933 1.561-4.322 3.116-6.947 4.508-.863.457-1.727.883-2.581 1.275l-.04.018-.196.09a45.756 45.756 0 0 1-2.215.931c-.049.019-.096.039-.145.057-.116.044-.231.089-.346.131a22.817 22.817 0 0 1-.512.187l-.052.018c-1.478.526-2.886.924-4.17 1.172-3.1.596-4.56.139-4.892-.488l.002-.002Zm4.273-6.053c1.374-1.119 2.984-2.235 4.75-3.291.039 2.258.286 4.427.725 6.386a28.63 28.63 0 0 1-1.955-.924 27.65 27.65 0 0 1-3.518-2.17h-.002Zm9.018 10.926a15.68 15.68 0 0 1-2.012.128c-3.03 0-5.93-.859-8.419-2.461-.17-.11-.098-.376.106-.385l.116-.007a16.767 16.767 0 0 0 2.078-.278c1.598-.307 3.376-.835 5.236-1.546a.328.328 0 0 1 .42.184v.003c.722 1.755 1.61 3.082 2.606 3.926.165.14.083.408-.131.436Zm6.592-4.163c-1.113 2.19-2.484 3.418-3.813 3.394-1.445-.026-2.885-1.53-3.95-4.127v-.003a.327.327 0 0 1 .172-.425c.01-.004.023-.009.034-.015a.335.335 0 0 1 .221-.015c1.996.56 3.962.851 5.803.851a15.29 15.29 0 0 0 1.276-.049.267.267 0 0 1 .257.387v.002Zm.48-1.884c-.464.067-.954.112-1.466.129-1.249.044-2.57-.065-3.928-.314a.176.176 0 0 1-.047-.33c.297-.15.592-.303.888-.46a48.174 48.174 0 0 0 5.71-3.537.176.176 0 0 1 .276.172 25.503 25.503 0 0 1-.97 3.952.58.58 0 0 1-.463.388Zm2.301 1.237a16.52 16.52 0 0 1-1.012.988c-.14.125-.351-.03-.272-.202.023-.05.046-.098.067-.147.094-.206.184-.417.271-.633a.176.176 0 0 1 .118-.102c.221-.057.437-.118.646-.187.17-.055.303.151.182.283Zm3.135-4.948c-.075.192-.153.381-.236.568-.012.026-.024.052-.038.078-.514.989-1.378 1.769-2.53 2.311a.334.334 0 0 1-.465-.39c.382-1.37.672-2.855.86-4.414.036-.29.18-.556.4-.749.474-.41.917-.82 1.324-1.226l.004-.004c.2-.2.543-.115.624.157.402 1.338.425 2.584.057 3.67Zm.312-7.305a.316.316 0 0 1-.543.017c-.02-.03-.04-.063-.061-.093-.465-.714-1-1.416-1.598-2.096a.26.26 0 0 1 .196-.43h.006c1.397 0 2.13.346 2.353.766.186.352.13.97-.352 1.836h-.002Zm.755 2.061c-.003.106-.147.133-.188.037l-.055-.125a.234.234 0 0 1 .026-.234l.056-.075c.07-.089.167-.077.167.023 0 .13-.003.241-.008.374h.002Zm49.48-3.688h5.862a.878.878 0 0 0 .87-.984.893.893 0 0 0-.895-.77h-7.285a.88.88 0 0 0-.877.877v8.77a.88.88 0 0 0 .877.877h7.308a.878.878 0 0 0 .87-.984.893.893 0 0 0-.894-.77h-5.839a.57.57 0 0 1-.57-.571v-1.492a.57.57 0 0 1 .57-.57h4.4a.878.878 0 0 0 .87-.985.893.893 0 0 0-.894-.77h-4.377a.57.57 0 0 1-.57-.571V14.34a.57.57 0 0 1 .57-.57l.004.005Zm17.917 3.407c-.804-.512-1.885-.775-3.244-.775-1.798 0-2.705-.439-2.705-1.315 0-.876.907-1.315 2.705-1.315.994 0 1.945.19 2.85.555.526.16.891-.029 1.096-.541.176-.453-.058-.892-.541-1.112-1.01-.438-2.134-.657-3.407-.657-1.271 0-2.397.278-3.23.818-.818.541-1.228 1.3-1.228 2.25 0 1.01.41 1.783 1.214 2.295s1.885.775 3.245.775c1.797 0 2.704.44 2.704 1.315 0 .876-.906 1.315-2.704 1.315h-.44c-.906 0-1.855-.19-2.835-.555-.453-.16-.92.044-1.112.526-.176.453.087.98.541 1.14 1.01.424 2.135.644 3.407.644h.438c1.33 0 2.398-.278 3.216-.818.833-.54 1.243-1.3 1.243-2.25 0-1.01-.41-1.783-1.214-2.295h.001Zm17.549-5.16a.88.88 0 0 0-.877.877v8.77a.88.88 0 0 0 .877.878.88.88 0 0 0 .878-.878V12.9a.88.88 0 0 0-.878-.877Zm-4.634 0h-8.747a.878.878 0 0 0-.87.985c.054.444.447.77.895.77h2.914c.315 0 .572.255.572.572v7.322c0 .518.454.934.984.87a.893.893 0 0 0 .771-.895v-7.299c0-.315.255-.572.572-.572h2.937a.878.878 0 0 0 .87-.984.894.894 0 0 0-.895-.77h-.003Zm-36.905 8.77H70.16a.572.572 0 0 1-.572-.572v-7.298a.893.893 0 0 0-.77-.894.878.878 0 0 0-.983.87v8.77a.88.88 0 0 0 .878.877h7.308a.878.878 0 0 0 .87-.984.893.893 0 0 0-.895-.77Zm-28.58-7.017c.98 0 1.798.35 2.471 1.039.16.16.38.249.628.249a.88.88 0 0 0 .878-.878c0-.249-.118-.483-.365-.702-1.039-.98-2.251-1.461-3.61-1.461-1.448 0-2.69.512-3.728 1.549-1.023 1.023-1.535 2.265-1.535 3.712 0 1.446.512 2.69 1.535 3.727 1.038 1.023 2.28 1.535 3.728 1.535 1.448 0 2.69-.512 3.712-1.535a.867.867 0 0 0 0-1.243.867.867 0 0 0-1.243 0 3.357 3.357 0 0 1-2.47 1.023c-.965 0-1.799-.336-2.485-1.023-.687-.686-1.023-1.52-1.023-2.484a3.36 3.36 0 0 1 1.023-2.47c.686-.687 1.52-1.039 2.484-1.039v.002Zm10.085 0h5.86a.878.878 0 0 0 .87-.984.893.893 0 0 0-.894-.77H56.05a.88.88 0 0 0-.877.877v8.77a.88.88 0 0 0 .877.877h7.309a.878.878 0 0 0 .87-.984.893.893 0 0 0-.895-.77h-5.837a.572.572 0 0 1-.572-.573V18.73c0-.315.255-.572.572-.572h4.399a.878.878 0 0 0 .87-.984.893.893 0 0 0-.895-.77h-4.376a.572.572 0 0 1-.572-.573v-1.489c0-.315.256-.572.572-.572l.005.006Z"/></svg>