<svg xmlns="http://www.w3.org/2000/svg" fill="none" viewBox="0 0 156 44"><path fill="currentColor" fill-rule="evenodd" d="M28.076 14.692a4.992 4.992 0 0 1-6.444-.165 9.992 9.992 0 0 0-6.4-2.518 4.99 4.99 0 0 1-4.841-4.287 14.988 14.988 0 0 1 17.684 6.963v.007Zm-20.618.742a10.001 10.001 0 0 0-2.474 6.407 4.996 4.996 0 0 1-4.24 4.864c-.5-1.515-.75-3.1-.744-4.694A14.994 14.994 0 0 1 7.57 8.985a5 5 0 0 1-.112 6.454v-.005Zm12.349 20.772A14.986 14.986 0 0 1 2.03 29.53a5.002 5.002 0 0 1 6.452.06 9.996 9.996 0 0 0 6.409 2.412 5.006 5.006 0 0 1 4.915 4.204Zm8.202-6.767a14.991 14.991 0 0 0 1.97-7.428 14.74 14.74 0 0 0-.855-4.932 5.01 5.01 0 0 0-4.145 4.932 9.953 9.953 0 0 1-2.361 6.445 5.01 5.01 0 0 0 0 6.46 14.99 14.99 0 0 0 5.391-5.477ZM16.14 16.224a5.681 5.681 0 1 1-1.813 11.217 5.681 5.681 0 0 1 1.813-11.217ZM57.652 30.88c1.456-.84 2.604-2.044 3.444-3.556.812-1.512 1.232-3.22 1.232-5.124 0-1.876-.42-3.584-1.232-5.096-.84-1.512-1.988-2.716-3.444-3.584-1.484-.84-3.164-1.288-5.04-1.288-1.904 0-3.584.448-5.04 1.288a9.023 9.023 0 0 0-3.444 3.584c-.84 1.512-1.232 3.22-1.232 5.096 0 1.904.392 3.612 1.232 5.124.812 1.512 1.96 2.716 3.444 3.556 1.456.868 3.136 1.288 5.04 1.288 1.876 0 3.556-.42 5.04-1.288Zm-7.896-3.08c-.84-.56-1.456-1.316-1.904-2.296-.448-.952-.672-2.072-.672-3.304 0-1.232.224-2.324.672-3.304.448-.952 1.064-1.708 1.904-2.268.812-.56 1.764-.84 2.856-.84 1.064 0 1.988.28 2.828.84a5.605 5.605 0 0 1 1.904 2.268c.448.98.672 2.072.672 3.304 0 1.232-.224 2.352-.672 3.304A5.509 5.509 0 0 1 55.44 27.8c-.84.56-1.764.812-2.828.812-1.092 0-2.044-.252-2.856-.812Zm23.571-6.608v-3.584h-.672c-1.064 0-1.932.196-2.548.56-.644.364-1.176.896-1.596 1.596l-.364-2.156h-3.584V32h3.948v-7.056c0-1.148.252-2.072.784-2.744.504-.672 1.344-1.008 2.464-1.008h1.568Zm13.496-2.856c1.008.588 1.792 1.428 2.352 2.548.56 1.12.868 2.408.868 3.892 0 1.456-.308 2.744-.868 3.864-.56 1.12-1.344 1.988-2.352 2.604-1.008.616-2.156.924-3.416.924-1.008 0-1.904-.168-2.632-.56-.756-.392-1.372-.896-1.848-1.568L78.535 32H75.09V12.4h3.948v7.028c1.092-1.316 2.548-1.988 4.34-1.988 1.288 0 2.436.308 3.444.896ZM85.059 27.8c.644-.756.98-1.764.98-2.996s-.336-2.212-.98-2.996c-.672-.756-1.512-1.148-2.576-1.148s-1.932.392-2.548 1.148c-.644.756-.952 1.736-.952 2.968 0 1.26.308 2.268.952 3.024.616.784 1.484 1.148 2.548 1.148s1.904-.364 2.576-1.148Zm13.957-15.4V32h10.892v-1.4h-9.38V12.4h-1.512ZM124.908 32v-1.316h-.532c-.392 0-.7-.112-.924-.364-.224-.224-.336-.56-.336-1.008v-6.608c0-1.624-.504-2.856-1.456-3.752-.98-.868-2.352-1.316-4.116-1.316-1.624 0-2.94.392-3.948 1.12-1.008.728-1.624 1.736-1.792 3.024h1.428c.168-.868.644-1.568 1.372-2.1.728-.504 1.708-.784 2.884-.784 1.316 0 2.352.336 3.08 1.008.728.672 1.12 1.568 1.12 2.744v1.232h-4.816c-1.82 0-3.22.392-4.172 1.12-.952.728-1.428 1.764-1.428 3.108 0 1.26.448 2.24 1.372 2.968.896.728 2.128 1.092 3.668 1.092 1.344 0 2.492-.28 3.416-.84a5.268 5.268 0 0 0 2.016-2.268v.588c-.056.756.112 1.344.504 1.736.392.42.98.616 1.82.616h.84Zm-8.148-6.888h4.928v1.148c0 1.4-.476 2.52-1.428 3.388-.952.868-2.24 1.288-3.864 1.288-1.12 0-2.016-.252-2.688-.784-.672-.532-.98-1.232-.98-2.128 0-.924.336-1.652 1.036-2.156.672-.504 1.68-.756 2.996-.756Zm20.361-6.58a6.087 6.087 0 0 1 2.38 2.52c.56 1.12.868 2.38.868 3.836 0 1.428-.308 2.688-.868 3.78a6.234 6.234 0 0 1-2.38 2.576c-1.008.616-2.156.924-3.444.924-1.316 0-2.436-.28-3.36-.896a5.11 5.11 0 0 1-2.044-2.492l-.224 3.22h-1.232V12.4h1.428v8.708a5.74 5.74 0 0 1 2.1-2.52c.924-.616 2.044-.952 3.332-.952 1.288 0 2.436.308 3.444.896Zm-.784 11.592a5.031 5.031 0 0 0 1.904-2.128c.448-.896.672-1.932.672-3.108 0-1.148-.224-2.184-.672-3.08-.448-.896-1.092-1.624-1.904-2.128a5.167 5.167 0 0 0-2.772-.784c-1.064 0-1.988.28-2.8.784-.812.504-1.428 1.232-1.876 2.128-.448.896-.672 1.932-.672 3.052 0 1.176.224 2.24.672 3.136.448.924 1.064 1.624 1.876 2.128.812.504 1.736.756 2.8.756 1.036 0 1.96-.252 2.772-.756Zm9.126-.056c-.84-.588-1.26-1.4-1.316-2.436h-1.428c.028 1.456.588 2.576 1.68 3.36 1.064.784 2.52 1.176 4.312 1.176 1.54 0 2.828-.364 3.892-1.092 1.064-.728 1.596-1.736 1.596-2.968 0-.924-.252-1.652-.756-2.212-.504-.532-1.12-.924-1.904-1.176-.784-.252-1.792-.476-2.996-.644-1.008-.112-1.764-.252-2.268-.392a2.821 2.821 0 0 1-1.344-.7c-.364-.336-.532-.812-.532-1.428 0-.784.364-1.456 1.092-1.96.728-.504 1.68-.756 2.856-.756 1.12 0 2.072.28 2.828.812a3.142 3.142 0 0 1 1.344 2.156h1.428c-.14-1.344-.728-2.38-1.736-3.108-1.008-.728-2.324-1.092-3.948-1.092a6.907 6.907 0 0 0-2.716.532c-.784.336-1.428.812-1.876 1.428a3.48 3.48 0 0 0-.672 2.1c0 .896.224 1.596.728 2.1.476.504 1.092.868 1.848 1.092.728.224 1.708.392 2.912.56.952.168 1.736.308 2.324.476.56.168 1.036.42 1.4.784.364.364.56.868.56 1.512 0 .84-.392 1.484-1.148 1.988-.784.504-1.736.756-2.912.756-1.344 0-2.436-.28-3.248-.868Z" clip-rule="evenodd"/></svg>